<svg xmlns="http://www.w3.org/2000/svg" viewBox="0 0 48 48" width="48" height="48">
  <!-- FB Taverns app roundel; icon: Tabler Icons "beer" (MIT) https://tabler.io/icons -->
  <circle cx="24" cy="24" r="23" fill="#324556" stroke="rgba(255,255,255,0.4)" stroke-width="1.5"/>
  <g transform="translate(12 12)" fill="none" stroke="#ffffff" stroke-width="2" stroke-linecap="round" stroke-linejoin="round">
    <path d="M9 21h6a1 1 0 0 0 1 -1v-3.625c0 -1.397 .29 -2.775 .845 -4.025l.31 -.7c.556 -1.25 .845 -2.253 .845 -3.65v-4a1 1 0 0 0 -1 -1h-10a1 1 0 0 0 -1 1v4c0 1.397 .29 2.4 .845 3.65l.31 .7a9.931 9.931 0 0 1 .845 4.025v3.625a1 1 0 0 0 1 1z" />
    <path d="M6 8h12" />
  </g>
</svg>
